HIERARCHY
ROOT Hips
{
  OFFSET 34.0413 97.9226 25.1906
  CHANNELS 6 Xposition Yposition Zposition Zrotation Xrotation Yrotation
  JOINT ToSpine
  {
    OFFSET -0.0105055 1.38907 -7.13956
    CHANNELS 3 Zrotation Xrotation Yrotation
    JOINT Spine
    {
      OFFSET 0.0105055 10 1
      CHANNELS 3 Zrotation Xrotation Yrotation
      JOINT Spine1
      {
        OFFSET 0 12 1.60637
        CHANNELS 3 Zrotation Xrotation Yrotation
        JOINT Neck
        {
          OFFSET 0 27 2.26658
          CHANNELS 3 Zrotation Xrotation Yrotation
          JOINT Head
          {
            OFFSET 0 9 2.12705
            CHANNELS 3 Zrotation Xrotation Yrotation
            End Site
            {
              OFFSET 0 11 2
            }
          }
        }
        JOINT LeftShoulder
        {
          OFFSET 8 19.6109 2.86452
          CHANNELS 3 Zrotation Xrotation Yrotation
          JOINT LeftArm
          {
            OFFSET 12 1 0.681055
            CHANNELS 3 Zrotation Xrotation Yrotation
            JOINT LeftForeArm
            {
              OFFSET 19 0 -1.52608
              CHANNELS 3 Zrotation Xrotation Yrotation
              JOINT LeftHand
              {
                OFFSET 23 0 0
                CHANNELS 3 Zrotation Xrotation Yrotation
                End Site
                {
                  OFFSET 10 0 0
                }
              }
            }
          }
        }
        JOINT RightShoulder
        {
          OFFSET -8 19.6109 2.86452
          CHANNELS 3 Zrotation Xrotation Yrotation
          JOINT RightArm
          {
            OFFSET -12 1 0.681055
            CHANNELS 3 Zrotation Xrotation Yrotation
            JOINT RightForeArm
            {
              OFFSET -19 0 -1.52608
              CHANNELS 3 Zrotation Xrotation Yrotation
              JOINT RightHand
              {
                OFFSET -23 0 0
                CHANNELS 3 Zrotation Xrotation Yrotation
                End Site
                {
                  OFFSET -10 0 0
                }
              }
            }
          }
        }
      }
    }
  }
  JOINT LeftUpLeg
  {
    OFFSET 9 -7.17245 0
    CHANNELS 3 Zrotation Xrotation Yrotation
    JOINT LeftLeg
    {
      OFFSET 0 -44.1113 0
      CHANNELS 3 Zrotation Xrotation Yrotation
      JOINT LeftFoot
      {
        OFFSET 0 -36.1829 0
        CHANNELS 3 Zrotation Xrotation Yrotation
        JOINT LeftToeBase
        {
          OFFSET 0 -4.84184 13
          CHANNELS 3 Zrotation Xrotation Yrotation
          End Site
          {
            OFFSET 0 1 6
          }
        }
      }
    }
  }
  JOINT RightUpLeg
  {
    OFFSET -9 -7.17245 0
    CHANNELS 3 Zrotation Xrotation Yrotation
    JOINT RightLeg
    {
      OFFSET 0 -44.0551 0
      CHANNELS 3 Zrotation Xrotation Yrotation
      JOINT RightFoot
      {
        OFFSET 0 -36.1469 0
        CHANNELS 3 Zrotation Xrotation Yrotation
        JOINT RightToeBase
        {
          OFFSET 0 -4.92256 13
          CHANNELS 3 Zrotation Xrotation Yrotation
          End Site
          {
            OFFSET 0 1 6
          }
        }
      }
    }
  }
}
MOTION
Frames:	7
Frame Time:	0.0333333
34.0425 97.9329 25.1896 2.97712 -6.03378 -3.40773 0 0 0 -0.201431 -1.1095 1.58173 -5.91323 5.60759 2.03946 6.22941 2.90677 -0.95572 -5.02811 4.56672 2.35786 -31.7413 3.2964 -5.20584 -41.7399 26.6944 -15.2995 -6.30309 -14.0512 -2.79045 -8.17997 0.328455 -4.58668 25.3712 5.16663 12.7691 53.7586 17.5627 3.21513 3.74908 -2.79229 11.8057 0.660005 0.021824 4.98513 -2.12166 0.555853 7.32629 -1.7061 20.4171 -10.5536 5.90048 -15.5782 0.807787 0.854238 3.37325 -4.01565 -4.8567 5.3058 -7.311 1.80424 7.32514 6.01229 -28.6283 -4.90769 -1.2543 4.87613 -19.5242 -8.00769 
34.0145 97.8577 25.136 3.12668 -5.80464 -3.44595 0 0 0 -0.364703 -1.39217 1.64928 -5.93182 5.58043 2.11133 6.46165 3.09666 -1.06065 -5.37471 4.47551 2.42562 -31.8619 3.31797 -5.23494 -41.5087 26.8975 -15.2279 -6.30804 -14.1773 -2.89765 -8.44378 0.315791 -4.30459 25.4827 5.17231 12.7326 53.5241 17.4068 3.14387 3.4064 -2.11227 12.3687 2.08085 0.0685751 3.72097 -2.42887 0.149935 6.95307 -1.41542 20.6316 -10.2854 6.15325 -15.5837 0.843077 0.727116 2.85448 -3.49726 -4.93454 5.01564 -7.14223 1.75571 7.35704 6.14 -30.2016 -4.47627 -1.20053 4.99572 -20.3409 -9.0109 
33.9242 97.5337 24.9667 3.34989 -5.1362 -3.44106 0 0 0 0.0199817 -1.50434 1.7509 -6.91536 4.7018 2.3504 6.73181 3.82411 -1.37742 -5.89453 4.02824 2.35506 -31.7512 3.34963 -5.34387 -42.0261 25.6641 -14.7725 -5.78097 -12.0353 -2.67572 -9.64484 0.284707 -3.35777 25.6326 5.15414 12.6038 53.9533 17.5907 2.58993 3.95513 -4.15662 12.562 1.04641 0.0390794 4.26954 -2.55962 -1.16309 6.78049 -1.43966 21.771 -10.7667 8.50971 -15.709 1.17577 0.361497 1.01601 -1.714 -5.00132 4.26599 -6.55004 1.73009 7.40931 7.00955 -34.7017 -3.40448 -1.06814 4.99587 -22.0255 -13.1494 
33.9288 97.5211 24.908 3.30446 -5.35649 -3.6342 0 0 0 0.515135 -1.371 1.92443 -7.51886 4.83036 2.62955 6.87372 4.06459 -1.47568 -5.84356 3.58982 2.28481 -31.4913 3.40583 -5.5533 -42.2241 25.1629 -14.9172 -5.64937 -11.1275 -2.14641 -10.1085 0.336163 -3.80352 25.7667 5.19336 12.6603 53.8062 17.4562 2.53815 3.66993 -3.41438 12.7837 1.52959 0.0540993 4.07765 -2.54861 -0.971524 6.85508 -1.33319 21.8182 -10.5994 7.77538 -16.0832 1.09973 0.410391 1.52029 -2.02132 -4.97155 4.39832 -6.50692 1.75848 7.4386 7.21502 -34.7799 -3.14144 -0.984287 5.01839 -22.3411 -13.5561 
33.8963 97.5112 24.8798 3.39473 -5.38723 -3.5524 0 0 0 0.296664 -1.51297 1.91373 -7.38796 5.08214 2.58709 6.38853 3.97969 -1.11118 -5.17644 3.40559 2.3028 -31.4741 3.3874 -5.50933 -42.1083 25.487 -15.0002 -5.70098 -11.3053 -2.32019 -10.1947 0.334693 -3.73376 25.6941 5.19414 12.6974 53.8198 17.7337 2.65557 4.16081 -4.85171 12.6326 1.03889 0.0410155 4.53543 -2.59855 -1.08085 6.88731 -1.33763 22.1085 -10.6798 7.41875 -16.4077 1.07059 0.383492 2.12625 -2.02937 -5.05652 4.42404 -6.55401 1.82817 7.42472 7.09192 -35.3047 -2.98408 -0.9493 5.11946 -22.8518 -13.3154 
33.8668 97.4676 24.8428 3.39584 -5.45176 -3.39379 0 0 0 -0.16466 -1.3781 1.85931 -6.68094 5.00385 2.38258 6.00871 3.87383 -1.0428 -5.13104 3.67897 2.24024 -31.9342 3.37985 -5.38099 -41.5226 26.2341 -15.0566 -5.85643 -11.9139 -2.56493 -10.0617 0.336371 -3.71569 25.2752 5.11943 12.6687 54.0717 17.5045 2.73513 3.94762 -4.05821 12.5267 1.30608 0.0502831 4.43768 -2.54021 -1.10784 6.90382 -1.40639 22.2465 -10.8542 8.38861 -16.0803 1.18726 0.419643 1.11127 -1.9799 -5.02665 4.51659 -6.59703 1.94222 7.3996 7.04514 -35.7945 -2.78147 -0.897475 5.08434 -23.0157 -14.0325 
33.8686 97.5446 24.798 3.35954 -5.46585 -3.42904 0 0 0 0.332994 -1.35697 1.88692 -7.31561 4.94526 2.56706 6.68303 3.94315 -1.36437 -5.72829 3.84262 2.30702 -31.4499 3.40131 -5.5516 -42.2544 25.0993 -14.8908 -5.60491 -11.0162 -2.35716 -10.1803 0.337125 -3.69638 25.6134 5.18778 12.7171 53.9582 17.5237 2.55532 3.96346 -4.2067 12.6635 1.44929 0.0550619 4.35453 -2.58497 -0.944342 6.74544 -1.27706 21.8277 -10.6603 7.75687 -16.1188 1.1 0.369 1.72373 -1.89592 -4.98233 4.49997 -6.58061 1.76739 7.40142 6.99562 -34.6386 -3.2736 -1.02156 5.0194 -22.1241 -13.1071 
